<?xml version="1.0" encoding="utf-8"?>
<!-- Generator: Adobe Illustrator 27.3.1, SVG Export Plug-In . SVG Version: 6.00 Build 0)  -->
<svg version="1.1" id="Layer_2_00000075851007756209558850000014579796492933588392_"
     xmlns="http://www.w3.org/2000/svg" xmlns:xlink="http://www.w3.org/1999/xlink" x="0px" y="0px" viewBox="0 0 171 171"
     style="enable-background:new 0 0 171 171;" xml:space="preserve">
<style type="text/css">
	.st0{fill:none;stroke:#FFFFFF;stroke-miterlimit:10;}
	.st1{fill:#FFFFFF;}
</style>
    <g>
	<rect x="0.5" y="0.5" class="st0" width="170" height="170"/>
        <path class="st0" d="M171,171H0V0h171V171z M1,170h169V1H1V170z"/>
</g>
    <g>
	<path class="st1" d="M27.6,72v-4.9h5.9V72C33.6,72,27.6,72,27.6,72z M33.6,75.3V97h-6V75.3H33.6z"/>
        <path class="st1" d="M44.1,75.4v2.9h0.1c0.8-1.1,1.7-2,2.8-2.6s2.4-0.9,3.8-0.9s2.6,0.3,3.8,0.8c1.1,0.5,2,1.5,2.6,2.8
		c0.6-0.9,1.5-1.8,2.6-2.5c1.1-0.7,2.4-1.1,3.9-1.1c1.2,0,2.2,0.1,3.2,0.4s1.8,0.7,2.5,1.3c0.7,0.6,1.2,1.4,1.6,2.4
		c0.4,1,0.6,2.2,0.6,3.6V97h-5.9V84.8c0-0.7,0-1.4-0.1-2.1c-0.1-0.6-0.2-1.2-0.5-1.7s-0.6-0.8-1.1-1.1c-0.5-0.3-1.2-0.4-2-0.4
		s-1.5,0.2-2,0.5c-0.5,0.3-0.9,0.7-1.2,1.3c-0.3,0.5-0.5,1.1-0.6,1.8S58,84.3,58,85V97h-6V84.9c0-0.6,0-1.3,0-1.9
		c0-0.6-0.2-1.2-0.4-1.7s-0.6-1-1-1.3s-1.2-0.5-2.2-0.5c-0.3,0-0.7,0.1-1.1,0.2c-0.5,0.1-0.9,0.4-1.3,0.7s-0.8,0.8-1.1,1.5
		s-0.5,1.5-0.5,2.6V97h-6V75.4L44.1,75.4L44.1,75.4z"/>
        <path class="st1" d="M77.1,78.5c0.6-0.9,1.4-1.7,2.3-2.2s2-1,3.2-1.2s2.4-0.4,3.6-0.4c1.1,0,2.2,0.1,3.3,0.2
		c1.1,0.2,2.1,0.4,3.1,0.9c0.9,0.4,1.7,1.1,2.3,1.9c0.6,0.8,0.9,1.8,0.9,3.2v11.3c0,1,0.1,1.9,0.2,2.8c0.1,0.9,0.3,1.6,0.6,2h-6
		c-0.1-0.3-0.2-0.7-0.3-1s-0.1-0.7-0.2-1.1c-0.9,1-2.1,1.7-3.3,2.1c-1.3,0.4-2.6,0.6-3.9,0.6c-1,0-2-0.1-2.9-0.4s-1.7-0.6-2.3-1.2
		s-1.2-1.2-1.6-2c-0.4-0.8-0.6-1.8-0.6-2.9c0-1.2,0.2-2.2,0.7-3s1-1.4,1.7-1.9c0.7-0.5,1.5-0.8,2.3-1.1s1.8-0.4,2.7-0.6
		c0.9-0.1,1.8-0.2,2.6-0.3c0.9-0.1,1.6-0.2,2.3-0.4s1.2-0.4,1.6-0.7s0.6-0.8,0.5-1.4c0-0.6-0.1-1.2-0.3-1.5s-0.5-0.7-0.8-0.9
		s-0.8-0.3-1.2-0.4c-0.5-0.1-1-0.1-1.5-0.1c-1.2,0-2.1,0.2-2.8,0.8S82.1,80.8,82,82H76C76.1,80.6,76.5,79.5,77.1,78.5z M88.8,86.9
		c-0.4,0.1-0.8,0.2-1.2,0.3c-0.4,0.1-0.9,0.2-1.4,0.2c-0.5,0.1-0.9,0.1-1.4,0.2c-0.4,0.1-0.9,0.2-1.3,0.3s-0.8,0.3-1.1,0.6
		s-0.6,0.5-0.8,0.9s-0.3,0.8-0.3,1.4s0.1,1,0.3,1.3c0.2,0.4,0.5,0.7,0.8,0.9c0.3,0.2,0.7,0.4,1.2,0.4c0.4,0.1,0.9,0.1,1.4,0.1
		c1.2,0,2.1-0.2,2.7-0.6s1.1-0.9,1.4-1.4s0.5-1.1,0.6-1.7c0.1-0.6,0.1-1,0.1-1.3v-2.2C89.5,86.6,89.2,86.8,88.8,86.9L88.8,86.9z"/>
        <path class="st1" d="M120.8,98.6c-0.2,1.1-0.8,2.2-1.5,3.1s-1.9,1.8-3.4,2.4s-3.5,1-5.9,1c-1.1,0-2.1-0.1-3.2-0.4s-2.1-0.7-3-1.2
		s-1.7-1.3-2.3-2.2c-0.6-0.9-0.9-1.9-1-3.2h5.9c0.3,1.1,0.8,1.9,1.6,2.3c0.8,0.4,1.8,0.7,2.8,0.7c1.7,0,2.9-0.5,3.7-1.5
		s1.1-2.3,1.1-3.8v-2.8h-0.1c-0.6,1.2-1.6,2-2.8,2.5s-2.4,0.8-3.8,0.8c-1.6,0-3-0.3-4.2-0.9c-1.2-0.6-2.1-1.4-2.9-2.3
		s-1.3-2.2-1.7-3.5c-0.3-1.3-0.5-2.7-0.5-4.2c0-1.4,0.2-2.8,0.6-4.1c0.4-1.3,1-2.4,1.8-3.4c0.8-1,1.8-1.8,2.9-2.4
		c1.2-0.6,2.5-0.9,4-0.9c1.4,0,2.7,0.3,3.8,0.8c1.1,0.5,2,1.4,2.7,2.7h0.1v-2.9h5.7v20.3C121.2,96.5,121.1,97.5,120.8,98.6
		L120.8,98.6z M112.7,91.4c0.6-0.3,1.2-0.8,1.6-1.3s0.7-1.2,0.9-1.9c0.2-0.7,0.3-1.5,0.3-2.2c0-0.9-0.1-1.7-0.2-2.5
		s-0.4-1.5-0.8-2.1c-0.4-0.6-0.9-1.1-1.6-1.5c-0.6-0.4-1.4-0.5-2.4-0.5c-0.8,0-1.6,0.2-2.2,0.5c-0.6,0.3-1.1,0.8-1.5,1.4
		s-0.7,1.2-0.9,2s-0.3,1.5-0.3,2.3s0.1,1.6,0.2,2.3c0.2,0.8,0.4,1.5,0.8,2.1c0.4,0.6,0.9,1.1,1.5,1.5c0.6,0.4,1.4,0.6,2.3,0.6
		C111.3,91.9,112,91.8,112.7,91.4L112.7,91.4z"/>
        <path class="st1" d="M132.3,91.8c0.9,0.9,2.2,1.3,3.9,1.3c1.2,0,2.2-0.3,3.1-0.9c0.9-0.6,1.4-1.2,1.6-1.9h5.2
		c-0.8,2.6-2.1,4.5-3.9,5.6c-1.7,1.1-3.8,1.7-6.3,1.7c-1.7,0-3.2-0.3-4.6-0.8s-2.5-1.3-3.5-2.3c-0.9-1-1.7-2.2-2.2-3.6
		s-0.8-2.9-0.8-4.6s0.3-3.1,0.8-4.5c0.5-1.4,1.3-2.6,2.3-3.6c1-1,2.1-1.8,3.5-2.4c1.4-0.6,2.9-0.9,4.5-0.9c1.8,0,3.4,0.4,4.8,1.1
		c1.4,0.7,2.5,1.7,3.4,2.9c0.9,1.2,1.5,2.6,1.9,4.1s0.5,3.1,0.4,4.8h-15.6C131,89.6,131.4,91,132.3,91.8L132.3,91.8z M139.1,80.4
		c-0.7-0.8-1.8-1.2-3.2-1.2c-0.9,0-1.7,0.2-2.4,0.5c-0.6,0.3-1.1,0.7-1.5,1.2c-0.4,0.5-0.6,1-0.8,1.5c-0.1,0.5-0.2,1-0.3,1.4h9.7
		C140.3,82.4,139.8,81.2,139.1,80.4L139.1,80.4z"/>
</g>
</svg>